
@startuml

!theme plain
top to bottom direction
skinparam linetype ortho
skinparam classAttributeIconSize 0
hide circle

<style>
classDiagram {
    class {
        header {
            FontStyle bold
        }
    }
}
</style>
!theme plain
top to bottom direction
skinparam linetype ortho

class APICommand {
  + APICommand(): 
  - header: Map<String, Object>
  + getHeader(): Map<String, Object>
  + equals(Object): boolean
  # canEqual(Object): boolean
  + createResponse(): APICommandResponse
  + validate(): ValidationResponse
  + hashCode(): int
  + getCmdIdentifier(): Class<APICommand>
  + toString(): String
}
class APICommandResponse {
  + APICommandResponse(APIResponseStatus, String): 
  + APICommandResponse(): 
  - status: APIResponseStatus
  - textualResponse: String
  + serverError(Exception): APICommandResponse
  + setStatus(APIResponseStatus): void
  + isResolved(): boolean
  + clientError(Exception): APICommandResponse
  + toString(): String
  + serverError(String): APICommandResponse
  + setTextualResponse(String): void
  # canEqual(Object): boolean
  + getStatus(): APIResponseStatus
  + clientError(String): APICommandResponse
  + notFound(): APICommandResponse
  + getTextualResponse(): String
  + equals(Object): boolean
  + hashCode(): int
  + ok(): APICommandResponse
  + isSuccess(): boolean
  + getUserMessage(): String
}
enum APIResponseStatus << enumeration >> {
  - APIResponseStatus(): 
  + OK: 
  + AUTH_ERROR: 
  + SERVER_ERROR: 
  + CLIENT_ERROR: 
  + UNPROCESSED: 
  + NOT_FOUND: 
  + isError(): boolean
  + values(): APIResponseStatus[]
  + valueOf(String): APIResponseStatus
}
class AddCommand {
  + AddCommand(Worker): 
  + AddCommand(): 
  + element: Worker
  + createResponse(): AddCommandResponse
  # canEqual(Object): boolean
  + equals(Object): boolean
  + getType(): String
  + toString(): String
  + setElement(Worker): void
  + getElement(): Worker
  + validate(): ValidationResponse
  + getInteractArgs(): Field<?>[]
  + hashCode(): int
}
class AddCommandResponse {
  + AddCommandResponse(): 
  - id: Integer
  + getUserMessage(): String
  + getId(): Integer
  + setId(Integer): void
}
class AddIfMaxCommand {
  + AddIfMaxCommand(): 
  + getType(): String
  + equals(Object): boolean
  # canEqual(Object): boolean
  + toString(): String
  + hashCode(): int
}
class AddIfMinCommand {
  + AddIfMinCommand(): 
  + getType(): String
  + equals(Object): boolean
  + toString(): String
  + hashCode(): int
  # canEqual(Object): boolean
}
class AddOrgCommand {
  + AddOrgCommand(Organization): 
  + AddOrgCommand(): 
  + element: Organization
  + getElement(): Organization
  + setElement(Organization): void
  # canEqual(Object): boolean
  + equals(Object): boolean
  + hashCode(): int
  + getInteractArgs(): Field<?>[]
  + toString(): String
  + createResponse(): AddOrgCommandResponse
  + getType(): String
}
class AddOrgCommandResponse {
  + AddOrgCommandResponse(): 
  - id: Integer
  + getId(): Integer
  + getUserMessage(): String
  + setId(Integer): void
}
class AuthCommand<T> {
  + AuthCommand(): 
  + AuthCommand(T): 
  - credentials: T
  + getCredentials(): T
  + toString(): String
  + equals(Object): boolean
  + hashCode(): int
  + createResponse(): AuthCommandResponse
  # canEqual(Object): boolean
  + setCredentials(T): void
}
class AuthCommandResponse {
  + AuthCommandResponse(): 
  - data: LoginResponse
  + setData(LoginResponse): AuthCommandResponse
  + getData(): LoginResponse
}
enum AuthStrategy << enumeration >> {
  - AuthStrategy(): 
  + LOGIN_PASS: 
  + REFRESH_TOKEN: 
  + values(): AuthStrategy[]
  + valueOf(String): AuthStrategy
}
class AuthenticationCredentials {
  + AuthenticationCredentials(): 
  # canEqual(Object): boolean
  + toString(): String
  + safeIdentifier(): String
  + equals(Object): boolean
  + hashCode(): int
}
class ClearCommand {
  + ClearCommand(): 
  + getType(): String
  + toString(): String
  # canEqual(Object): boolean
  + equals(Object): boolean
  + hashCode(): int
}
class CollectionInfo {
  + CollectionInfo(): 
  + CollectionInfo(String, String, ZonedDateTime, Integer): 
  - itemsCount: Integer
  - initializationDate: ZonedDateTime
  - name: String
  - type: String
  + equals(Object): boolean
  + getName(): String
  + getType(): String
  + getInitializationDate(): ZonedDateTime
  + setItemsCount(Integer): void
  # canEqual(Object): boolean
  + getItemsCount(): Integer
  + setName(String): void
  + hashCode(): int
  + setType(String): void
  + setInitializationDate(ZonedDateTime): void
  + toString(): String
}
class Coordinates {
  + Coordinates(): 
  + Coordinates(Integer, float): 
  - y: float
  - x: Integer
  # canEqual(Object): boolean
  + compareTo(Coordinates): int
  + setX(Integer): void
  + hashCode(): int
  + getY(): float
  + equals(Object): boolean
  + fromString(String): Coordinates
  + setY(float): void
  + getX(): Integer
  + toString(): String
}
class CoordinatesValidator {
  + CoordinatesValidator(): 
  + validateX(Integer): ValidationResponse
  + validateY(Float): ValidationResponse
  + validateAll(Coordinates): ValidationResponse
}
class DefaultAuthenticationCredentials {
  + DefaultAuthenticationCredentials(): 
  + DefaultAuthenticationCredentials(String, String): 
  - username: String
  - password: String
  + toString(): String
  + setPassword(String): void
  # canEqual(Object): boolean
  + getUsername(): String
  + hashCode(): int
  + safeIdentifier(): String
  + getPassword(): String
  + setUsername(String): void
  + equals(Object): boolean
}
class DefaultCollectionCommandResponse {
  + DefaultCollectionCommandResponse(): 
  + getUserMessage(): String
}
class DefaultLoginResponse {
  + DefaultLoginResponse(String, Integer, String): 
  + DefaultLoginResponse(): 
  - username: String
  - role: String
  - userId: Integer
  + getUserId(): Integer
  # canEqual(Object): boolean
  + setUserId(Integer): void
  + getUsername(): String
  + setUsername(String): void
  + equals(Object): boolean
  + hashCode(): int
  + toString(): String
  + getRole(): String
  + setRole(String): void
}
class ExecuteScriptCommand {
  + ExecuteScriptCommand(): 
  + ExecuteScriptCommand(List<APICommand>): 
  - commands: List<APICommand>
  + getInlineArgs(): Field<?>[]
  + createResponse(): ExecuteScriptCommandResponse
  + getCommands(): List<APICommand>
  + setCommands(List<APICommand>): void
  + hashCode(): int
  + getType(): String
  + toString(): String
  + equals(Object): boolean
  # canEqual(Object): boolean
}
class ExecuteScriptCommandResponse {
  + ExecuteScriptCommandResponse(): 
  + getUserMessage(): String
}
class Field<T> {
  + Field(): 
  + Field(String, Class<T>): 
  - name: String
  - valueClass: Class<T>
  + toString(): String
  + hashCode(): int
  + setValueClass(Class<T>): void
  + getName(): String
  # canEqual(Object): boolean
  + setName(String): void
  + equals(Object): boolean
  + getValueClass(): Class<T>
}
annotation FieldValidator << annotation >> {
  + value(): Class<Validator>
}
class FieldWithDesc<T> {
  + FieldWithDesc(String, Class<T>, String, IValidator<T>, boolean): 
  - validator: IValidator<T>
  - promptMsg: String
  - nullAble: boolean
  + getValidator(): IValidator<T>
  # canEqual(Object): boolean
  + equals(Object): boolean
  + getPromptMsg(): String
  + toString(): String
  + isNullAble(): boolean
  + hashCode(): int
}
class FilterLessPosCommand {
  + FilterLessPosCommand(): 
  + FilterLessPosCommand(Position): 
  + position: Position
  # canEqual(Object): boolean
  + hashCode(): int
  + getPosition(): Position
  + createResponse(): FilterLessPosCommandResponse
  + equals(Object): boolean
  + toString(): String
  + getType(): String
  + getInlineArgs(): Field<?>[]
  + setPosition(Position): void
}
class FilterLessPosCommandResponse {
  + FilterLessPosCommandResponse(): 
  + getUserMessage(): String
}
class GetOrgsCommand {
  + GetOrgsCommand(): 
  + createResponse(): OrganisationCommandResponse
  + getType(): String
  + hashCode(): int
  + toString(): String
  # canEqual(Object): boolean
  + equals(Object): boolean
}
class GetSelfInfoCommand {
  + GetSelfInfoCommand(): 
  + equals(Object): boolean
  + createResponse(): GetSelfInfoResponse
  # canEqual(Object): boolean
  + hashCode(): int
  + getType(): String
  + toString(): String
}
class GetSelfInfoResponse {
  + GetSelfInfoResponse(): 
  - id: Integer
  + getUserMessage(): String
  + getId(): Integer
  + setId(Integer): void
}
class GetWorkerCommand {
  + GetWorkerCommand(): 
  + GetWorkerCommand(Integer): 
  + id: Integer
  + setId(Integer): void
  + equals(Object): boolean
  + hashCode(): int
  # canEqual(Object): boolean
  + toString(): String
  + createResponse(): GetWorkerCommandResponse
  + getId(): Integer
  + getType(): String
}
class GetWorkerCommandResponse {
  + GetWorkerCommandResponse(): 
  - worker: Worker
  # canEqual(Object): boolean
  + equals(Object): boolean
  + toString(): String
  + hashCode(): int
  + getWorker(): Worker
  + setWorker(Worker): void
  + getUserMessage(): String
}
class GetWorkerIdsCommand {
  + GetWorkerIdsCommand(): 
  + createResponse(): GetWorkerIdsCommandResponse
  # canEqual(Object): boolean
  + equals(Object): boolean
  + getType(): String
  + hashCode(): int
  + toString(): String
}
class GetWorkerIdsCommandResponse {
  + GetWorkerIdsCommandResponse(): 
}
interface IAPIMessage << interface >>
interface IIdentifiableCommand<K> << interface >> {
  + getCmdIdentifier(): K
}
interface IKeyedEntity<K> << interface >> {
  + getPrimaryKey(): K
}
interface IOwnedEntity << interface >> {
  + setOwner(Integer): boolean
  + getOwner(): Integer
}
interface ISetCollection<K, V> << interface >>
interface IValidator<T> << interface >> {
  + validate(T): ValidationResponse
}
class InfoCommand {
  + InfoCommand(): 
  + equals(Object): boolean
  # canEqual(Object): boolean
  + getType(): String
  + hashCode(): int
  + createResponse(): InfoCommandResponse
  + toString(): String
}
class InfoCommandResponse {
  + InfoCommandResponse(): 
  - result: CollectionInfo
  + setResult(CollectionInfo): void
  + getUserMessage(): String
  + getResult(): CollectionInfo
}
annotation InputNullable << annotation >>
annotation InteractText << annotation >> {
  + value(): String
}
class JWTAuthenticationCredentials {
  + JWTAuthenticationCredentials(String): 
  + JWTAuthenticationCredentials(): 
  + token: String
  # canEqual(Object): boolean
  + hashCode(): int
  + setToken(String): void
  + equals(Object): boolean
  + toString(): String
  + safeIdentifier(): String
  + getToken(): String
}
entity JWTInfo << record >> {
  + JWTInfo(String, ZonedDateTime): 
  - token: String
  - expiration: ZonedDateTime
  + token(): String
  + expiration(): ZonedDateTime
}
class JWTLoginResponse {
  + JWTLoginResponse(): 
  + JWTLoginResponse(JWTInfo, JWTInfo): 
  - authToken: JWTInfo
  - refreshToken: JWTInfo
  + equals(Object): boolean
  + hashCode(): int
  + setRefreshToken(JWTInfo): void
  + getAuthToken(): JWTInfo
  + getRefreshToken(): JWTInfo
  + toString(): String
  + setAuthToken(JWTInfo): void
  # canEqual(Object): boolean
}
class ListAPICommandResponse<T> {
  + ListAPICommandResponse(): 
  - result: List<T>
  + getResult(): List<T>
  + setResult(List<T>): void
  + getUserMessage(): String
}
class LoginCommand<T> {
  + LoginCommand(): 
  # strategy: AuthStrategy
  + hashCode(): int
  # canEqual(Object): boolean
  + setStrategy(AuthStrategy): void
  + equals(Object): boolean
  + getStrategy(): AuthStrategy
  + toString(): String
}
class LoginResponse {
  + LoginResponse(): 
}
annotation NotPromptRequired << annotation >>
class OrganisationCommandResponse {
  + OrganisationCommandResponse(): 
  - organizations: List<Organization>
  + getUserMessage(): String
  + getOrganizations(): List<Organization>
  + setOrganizations(List<Organization>): void
}
class Organization {
  + Organization(Integer, String, OrganizationType): 
  + Organization(): 
  ~ type: OrganizationType
  ~ fullName: String
  ~ id: Integer
  + setId(Integer): void
  + getType(): OrganizationType
  + getComparator(): Comparator<Organization>
  + setType(OrganizationType): void
  + equals(Object): boolean
  + compareTo(Organization): int
  + getId(): Integer
  + getFullName(): String
  + hashCode(): int
  + toString(): String
  + setFullName(String): void
  # canEqual(Object): boolean
}
enum OrganizationType << enumeration >> {
  - OrganizationType(int): 
  - value: int
  + PUBLIC: 
  + PRIVATE_LIMITED_COMPANY: 
  + COMMERCIAL: 
  + OPEN_JOINT_STOCK_COMPANY: 
  + valueOf(String): OrganizationType
  + getValue(): int
  + values(): OrganizationType[]
}
class OrganizationValidator {
  + OrganizationValidator(): 
  + validateFullName(String): ValidationResponse
  + validateAll(Organization): ValidationResponse
}
class PagingAPICommand {
  + PagingAPICommand(Integer, Integer): 
  + PagingAPICommand(): 
  - offset: Integer
  - count: Integer
  + FULL_COUNT: Integer
  + getCount(): Integer
  + setCount(Integer): void
  + toString(): String
  + getOffset(): Integer
  # canEqual(Object): boolean
  + equals(Object): boolean
  + createResponse(): DefaultCollectionCommandResponse
  + getType(): String
  + hashCode(): int
  + setOffset(Integer): void
}
class PasswordLoginCommand {
  + PasswordLoginCommand(): 
  + hashCode(): int
  + equals(Object): boolean
  # canEqual(Object): boolean
  + getType(): String
  + toString(): String
  + getInteractArgs(): Field<?>[]
}
class PingCommand {
  + PingCommand(): 
}
enum Position << enumeration >> {
  - Position(int): 
  + LEAD_DEVELOPER: 
  + MANAGER_OF_CLEANING: 
  + ENGINEER: 
  + value: int
  + HEAD_OF_DEPARTMENT: 
  + CLEANER: 
  + values(): Position[]
  + valueOf(String): Position
  + getValue(): int
}
class PrintDescendingCommand {
  + PrintDescendingCommand(): 
  + PrintDescendingCommand(Integer, Integer): 
  + createResponse(): PrintDescendingCommandResponse
  # canEqual(Object): boolean
  + toString(): String
  + getType(): String
  + hashCode(): int
  + equals(Object): boolean
}
class PrintDescendingCommandResponse {
  + PrintDescendingCommandResponse(): 
  + getUserMessage(): String
}
class RefreshLoginCommand {
  + RefreshLoginCommand(): 
  + equals(Object): boolean
  # canEqual(Object): boolean
  + getType(): String
  + toString(): String
  + hashCode(): int
}
class RegisterCommand {
  + RegisterCommand(): 
  + getType(): String
  + getInteractArgs(): Field<?>[]
  + toString(): String
  + hashCode(): int
  + equals(Object): boolean
  # canEqual(Object): boolean
}
class RemoveByIdCommand {
  + RemoveByIdCommand(Integer): 
  + RemoveByIdCommand(): 
  + id: Integer
  + getId(): Integer
  + getType(): String
  + toString(): String
  + equals(Object): boolean
  + hashCode(): int
  + getInlineArgs(): Field<?>[]
  + setId(Integer): void
  # canEqual(Object): boolean
}
class RemoveGreaterCommand {
  + RemoveGreaterCommand(Worker): 
  + RemoveGreaterCommand(): 
  + element: Worker
  + setElement(Worker): void
  + validate(): ValidationResponse
  + getInteractArgs(): Field<?>[]
  + hashCode(): int
  + equals(Object): boolean
  + getType(): String
  # canEqual(Object): boolean
  + toString(): String
  + getElement(): Worker
}
class SaveCommand {
  + SaveCommand(): 
  + equals(Object): boolean
  + toString(): String
  + hashCode(): int
  # canEqual(Object): boolean
  + getType(): String
}
class ShowCommand {
  + ShowCommand(Integer, Integer): 
  + ShowCommand(): 
  + createResponse(): ShowCommandResponse
  + getType(): String
  + toString(): String
  + equals(Object): boolean
  # canEqual(Object): boolean
  + hashCode(): int
}
class ShowCommandResponse {
  + ShowCommandResponse(): 
}
class ShowCommandResponse {
  + ShowCommandResponse(): 
}
class ShowMineCommand {
  + ShowMineCommand(): 
  # canEqual(Object): boolean
  + hashCode(): int
  + toString(): String
  + getType(): String
  + equals(Object): boolean
  + createResponse(): ShowCommandResponse
}
class UniqueOrganisationCommand {
  + UniqueOrganisationCommand(): 
  + toString(): String
  + hashCode(): int
  + createResponse(): UniqueOrganisationCommandResponse
  # canEqual(Object): boolean
  + getType(): String
  + equals(Object): boolean
}
class UniqueOrganisationCommandResponse {
  + UniqueOrganisationCommandResponse(): 
  - organizations: List<Organization>
  + getOrganizations(): List<Organization>
  + getUserMessage(): String
  + setOrganizations(List<Organization>): void
}
class UpdateCommand {
  + UpdateCommand(Integer, Worker): 
  + UpdateCommand(): 
  + id: Integer
  + element: Worker
  + getElement(): Worker
  + hashCode(): int
  + equals(Object): boolean
  + getInlineArgs(): Field<?>[]
  # canEqual(Object): boolean
  + getId(): Integer
  + setId(Integer): void
  + getType(): String
  + validate(): ValidationResponse
  + setElement(Worker): void
  + toString(): String
  + getInteractArgs(): Field<?>[]
}
class UserAPICommand {
  + UserAPICommand(): 
}
interface UserPrintableAPICommandResponse << interface >> {
  + getUserMessage(): String
}
interface UserPromptedAPICommand << interface >> {
  + getInteractArgs(): Field<?>[]
  + getInlineArgs(): Field<?>[]
  + getType(): String
}
class ValidationResponse {
  + ValidationResponse(boolean, String): 
  - msg: String
  - allowed: boolean
  + toString(): String
  + getMsg(): String
  + isAllowed(): boolean
  + hashCode(): int
  + setAllowed(boolean): void
  + equals(Object): boolean
  # canEqual(Object): boolean
  + setMsg(String): void
}
interface Validator << interface >>
class Worker {
  + Worker(Integer, String, ZonedDateTime, Integer, String, float, Date, LocalDate, Coordinates, Organization, Position): 
  + Worker(): 
  - startDate: Date
  - name: String
  - endDate: LocalDate
  - salary: float
  - organization: Organization
  - ownerUsername: String
  - coordinates: Coordinates
  - position: Position
  - owner: Integer
  - id: Integer
  - creationDate: ZonedDateTime
  + getSalary(): float
  + getOrganization(): Organization
  + setEndDate(LocalDate): void
  + getPrimaryKey(): Integer
  + getComparator(): Comparator<Worker>
  + withOwnerUsername(String): Worker
  + setSalary(float): void
  + setCoordinates(Coordinates): void
  + setOrganization(Organization): void
  + getCoordinates(): Coordinates
  + setName(String): void
  + withOwner(Integer): Worker
  + getOwnerUsername(): String
  + getStartDate(): Date
  + setOwnerUsername(String): void
  + getCreationDate(): ZonedDateTime
  + setPosition(Position): void
  + getName(): String
  + getEndDate(): LocalDate
  + getPosition(): Position
  + getId(): Integer
  + equals(Object): boolean
  + setStartDate(Date): void
  + toString(): String
  + withCreationDate(ZonedDateTime): Worker
  + setOwner(Integer): boolean
  + getOwner(): Integer
  + nicePrintFormat(List<Worker>): String
  + withId(Integer): Worker
  + compareTo(Worker): int
}
class WorkerCollection {
  + WorkerCollection(): 
  + addAll(Collection<Worker>): boolean
  + add(Worker): boolean
}
class WorkerValidationTest {
  + WorkerValidationTest(): 
  - testCoords: Coordinates
  - testOrg: Organization
  ~ testWorkerValidation(): void
  ~ testWorkerNullValidation(): void
}
class WorkerValidator {
  + WorkerValidator(): 
  + validateSalary(Float): ValidationResponse
  + validateName(String): ValidationResponse
  + validateCoordinates(Coordinates): ValidationResponse
  + validateAll(Worker): ValidationResponse
  + validateId(Integer): ValidationResponse
  + validateStartDate(Date): ValidationResponse
}

APICommand                         ..^  IAPIMessage                       
APICommand                         ..^  IIdentifiableCommand              
APICommandResponse                "1" *--> "status\n1" APIResponseStatus                 
APICommandResponse                 ..^  IAPIMessage                       
APICommandResponse                 ..^  UserPrintableAPICommandResponse   
AddCommand                         --^  UserAPICommand                    
AddCommand                        "1" *--> "element\n1" Worker                            
AddCommandResponse                 --^  APICommandResponse                
AddCommandResponse                 +--  AddCommand                        
AddCommandResponse                 ..^  UserPrintableAPICommandResponse   
AddIfMaxCommand                    --^  AddCommand                        
AddIfMinCommand                    --^  AddCommand                        
AddOrgCommand                     "1" *--> "element\n1" Organization                      
AddOrgCommand                      --^  UserAPICommand                    
AddOrgCommandResponse              --^  APICommandResponse                
AddOrgCommandResponse              +--  AddOrgCommand                     
AddOrgCommandResponse              ..^  UserPrintableAPICommandResponse   
AuthCommand                        ..>  AuthenticationCredentials         
AuthCommand                        --^  UserAPICommand                    
AuthCommandResponse                --^  APICommandResponse                
AuthCommandResponse                +--  AuthCommand                       
AuthCommandResponse               "1" *--> "data\n1" LoginResponse                     
AuthCommandResponse                ..^  UserPrintableAPICommandResponse   
ClearCommand                       --^  UserAPICommand                    
CoordinatesValidator               ..^  Validator                         
DefaultAuthenticationCredentials   --^  AuthenticationCredentials         
DefaultCollectionCommandResponse   --^  ListAPICommandResponse            
DefaultCollectionCommandResponse   +--  PagingAPICommand                  
DefaultLoginResponse               --^  LoginResponse                     
ExecuteScriptCommand              "1" *--> "commands\n*" APICommand                        
ExecuteScriptCommand               --^  UserAPICommand                    
ExecuteScriptCommandResponse       +--  ExecuteScriptCommand              
ExecuteScriptCommandResponse       --^  ListAPICommandResponse            
FieldWithDesc                      --^  Field                             
FieldWithDesc                     "1" *--> "validator\n1" IValidator                        
FilterLessPosCommand              "1" *--> "position\n1" Position                          
FilterLessPosCommand               --^  UserAPICommand                    
FilterLessPosCommandResponse       +--  FilterLessPosCommand              
FilterLessPosCommandResponse       --^  ListAPICommandResponse            
GetOrgsCommand                     --^  UserAPICommand                    
GetSelfInfoCommand                 --^  UserAPICommand                    
GetSelfInfoResponse                --^  APICommandResponse                
GetSelfInfoResponse                +--  GetSelfInfoCommand                
GetSelfInfoResponse                ..^  UserPrintableAPICommandResponse   
GetWorkerCommand                   --^  UserAPICommand                    
GetWorkerCommandResponse           --^  APICommandResponse                
GetWorkerCommandResponse           +--  GetWorkerCommand                  
GetWorkerCommandResponse           ..^  UserPrintableAPICommandResponse   
GetWorkerCommandResponse          "1" *--> "worker\n1" Worker                            
GetWorkerIdsCommand                --^  UserAPICommand                    
GetWorkerIdsCommandResponse        +--  GetWorkerIdsCommand               
GetWorkerIdsCommandResponse        --^  ListAPICommandResponse            
ISetCollection                     ..>  IKeyedEntity                      
InfoCommand                        --^  UserAPICommand                    
InfoCommandResponse                --^  APICommandResponse                
InfoCommandResponse               "1" *--> "result\n1" CollectionInfo                    
InfoCommandResponse                +--  InfoCommand                       
InfoCommandResponse                ..^  UserPrintableAPICommandResponse   
JWTAuthenticationCredentials       --^  AuthenticationCredentials         
JWTLoginResponse                   --^  DefaultLoginResponse              
JWTLoginResponse                  "1" *--> "authToken\n1" JWTInfo                           
ListAPICommandResponse             --^  APICommandResponse                
LoginCommand                       --^  AuthCommand                       
LoginCommand                      "1" *--> "strategy\n1" AuthStrategy                      
LoginCommand                       ..>  AuthenticationCredentials         
OrganisationCommandResponse        --^  APICommandResponse                
OrganisationCommandResponse        +--  GetOrgsCommand                    
OrganisationCommandResponse       "1" *--> "organizations\n*" Organization                      
OrganisationCommandResponse        ..^  UserPrintableAPICommandResponse   
Organization                      "1" *--> "type\n1" OrganizationType                  
OrganizationValidator              ..^  Validator                         
PagingAPICommand                   --^  UserAPICommand                    
PasswordLoginCommand               --^  LoginCommand                      
PingCommand                        --^  APICommand                        
PrintDescendingCommand             --^  PagingAPICommand                  
PrintDescendingCommandResponse     --^  DefaultCollectionCommandResponse  
PrintDescendingCommandResponse     +--  PrintDescendingCommand            
RefreshLoginCommand                --^  LoginCommand                      
RegisterCommand                    --^  AuthCommand                       
RemoveByIdCommand                  --^  UserAPICommand                    
RemoveGreaterCommand               --^  UserAPICommand                    
RemoveGreaterCommand              "1" *--> "element\n1" Worker                            
SaveCommand                        --^  UserAPICommand                    
ShowCommand                        --^  PagingAPICommand                  
ShowCommandResponse                --^  DefaultCollectionCommandResponse  
ShowCommandResponse                --^  DefaultCollectionCommandResponse  
ShowCommandResponse                +--  ShowCommand                       
ShowCommandResponse                +--  ShowMineCommand                   
ShowMineCommand                    --^  UserAPICommand                    
UniqueOrganisationCommand          --^  UserAPICommand                    
UniqueOrganisationCommandResponse  --^  APICommandResponse                
UniqueOrganisationCommandResponse "1" *--> "organizations\n*" Organization                      
UniqueOrganisationCommandResponse  +--  UniqueOrganisationCommand         
UniqueOrganisationCommandResponse  ..^  UserPrintableAPICommandResponse   
UpdateCommand                      --^  UserAPICommand                    
UpdateCommand                     "1" *--> "element\n1" Worker                            
UserAPICommand                     --^  APICommand                        
UserAPICommand                     ..^  UserPromptedAPICommand            
ValidationResponse                 ..^  Validator                         
Worker                            "1" *--> "coordinates\n1" Coordinates                       
Worker                             ..^  IKeyedEntity                      
Worker                             ..^  IOwnedEntity                      
Worker                            "1" *--> "organization\n1" Organization                      
Worker                            "1" *--> "position\n1" Position                          
WorkerCollection                   ..^  ISetCollection                    
WorkerValidationTest              "1" *--> "testCoords\n1" Coordinates                       
WorkerValidationTest              "1" *--> "testOrg\n1" Organization                      
WorkerValidator                    ..^  Validator                         
@enduml
