
@startuml

!theme plain
top to bottom direction
skinparam linetype ortho
skinparam classAttributeIconSize 0
hide circle

<style>
classDiagram {
    class {
        header {
            FontStyle bold
        }
    }
}
</style>
!theme plain
top to bottom direction
skinparam linetype ortho

class APIApplication {
  + APIApplication(): 
  + filter(AppRequest): boolean
}
class APICommandAuthenticator<C> {
  # APICommandAuthenticator(): 
  + AUTH_HEADER: String
  + extractAuth(APICommand): C
  + authenticate(APICommand, C): APICommand
}
class AbstractAPIClient<T> {
  + AbstractAPIClient(IClientTransport<T>): 
  - transport: IClientTransport<T>
  - currentMessageId: Long
  - timeout: Duration
  + setTimeout(Duration): void
  # serialize(APICommand): T
  + request(APICommand): APICommandResponse
  - validateReply(T): boolean
  # deserialize(T): APICommandResponse
}
class AbstractApplication {
  + AbstractApplication(): 
  - anyCommandHandler: RequestHandler
  - commandHandlers: Map<Class<APICommand>, RequestHandler>
  - nextApp: AbstractApplication
  - log: Logger
  + on(IApplicationCommandHandler): void
  + on(IApplicationCommandHandler, Class<APICommand>[]): void
  + process(AppRequest): void
  + chain(AbstractApplication): AbstractApplication
  # beforeTermination(AppRequest): void
  - safeProcessCall(AppRequest, Consumer<AppRequest>): void
  + start(): void
  - forwardToNext(AppRequest): void
  # apply(AppRequest): void
  + on(Class<APICommand>, IApplicationCommandHandler): void
}
class AbstractApplicationDecorator {
  + AbstractApplicationDecorator(AbstractApplication): 
  # decoratee: AbstractApplication
  # apply(AppRequest): void
}
class AbstractInputTransportApplication<U, L> {
  + AbstractInputTransportApplication(IServerTransport<U, L>): 
  - log: Logger
  - transport: IServerTransport<U, L>
  - handle(U, L): void
  # supplySession(U, L): Session<U>
  # deserialize(L): APICommand
  + filter(AppRequest): boolean
  + start(): void
}
class AbstractOutputTransportApplication<U, L> {
  + AbstractOutputTransportApplication(IServerTransport<U, L>): 
  - log: Logger
  - transport: IServerTransport<U, L>
  + apply(AppRequest): void
  # supplyResponse(AppRequest): AppResponseController<U>
  # send(U, APICommandResponse): void
  # serialize(APICommandResponse): L
}
class AppRequest {
  + AppRequest(ReqStatus, Long, Session<?>, AppResponseController<?>, APICommand, boolean): 
  + AppRequest(): 
  - payload: APICommand
  - isTerminated: boolean
  - session: Session<?>
  - status: ReqStatus
  - id: Long
  - response: AppResponseController<?>
  + isTerminated(): boolean
  + id(): Long
  + toString(): String
  + status(): ReqStatus
  + payload(): APICommand
  + response(): AppResponseController<?>
  + session(): Session<?>
  + setResponse(AppResponseController<?>): void
  + setStatus(ReqStatus): void
  + terminate(): void
  + setSession(Session<?>): void
}
class AppResponseController<U> {
  + AppResponseController(AppRequest, IDestinationServerApplication<U>): 
  - recipient: U
  - log: Logger
  - destination: IDestinationServerApplication<U>
  - parentRequest: AppRequest
  - response: APICommandResponse
  - id: Long
  + sendOk(): void
  + from(APICommandResponse): AppResponseController<U>
  + status(APIResponseStatus): AppResponseController<U>
  + send(): void
  + getStatus(): APIResponseStatus
  + message(String): AppResponseController<U>
  + getId(): Long
  + sendErr(String): void
}
class ApplicationBuildException {
  + ApplicationBuildException(String): 
}
class AuthenticatedFilter {
  + AuthenticatedFilter(): 
  - instance: AuthenticatedFilter
  + filter(AppRequest): boolean
  + getInstance(): AuthenticatedFilter
}
class Authentication {
  + Authentication(): 
  + Authentication(AuthenticationStatus, Integer, String, String): 
  + Authentication(AuthenticationStatus): 
  - userHandle: Integer
  - role: String
  - userName: String
  - status: AuthenticationStatus
  + setStatus(AuthenticationStatus): void
  # canEqual(Object): boolean
  + getRole(): String
  + getUserHandle(): Integer
  + equals(Object): boolean
  + setUserHandle(Integer): void
  + hashCode(): int
  + ok(Integer, String, String): Authentication
  + setUserName(String): void
  + invalid(): Authentication
  + getUserName(): String
  + toString(): String
  + getStatus(): AuthenticationStatus
  + setRole(String): void
}
class AuthenticationApplication<C, R> {
  + AuthenticationApplication(APICommandAuthenticator<C>, AuthenticationReceiver<C, R>): 
  - log: Logger
  - commandAuthenticator: APICommandAuthenticator<C>
  - authenticationReceiver: AuthenticationReceiver<C, R>
  # apply(AppRequest): void
  - updateSession(AppRequest, Authentication): void
  # loginUser(AppRequest): void
  # registerUser(AppRequest): void
}
interface AuthenticationReceiver<C, R> << interface >> {
  + register(RegisterCommand): R
  + authorize(C): Authentication
  + login(LoginCommand): R
  + requestIdentity(int): DefaultLoginResponse
}
enum AuthenticationStatus << enumeration >> {
  - AuthenticationStatus(): 
  + GUEST: 
  + INVALID: 
  + NORMAL: 
  + values(): AuthenticationStatus[]
  + valueOf(String): AuthenticationStatus
}
class BasicApplication {
  + BasicApplication(): 
}
enum CommandType << enumeration >> {
  - CommandType(): 
  + DATA: 
  + ACK: 
  + INIT: 
  + NACK: 
  + HALT: 
  + values(): CommandType[]
  + valueOf(String): CommandType
}
class DefaultAPICommandAuthenticator {
  - DefaultAPICommandAuthenticator(): 
  - instance: DefaultAPICommandAuthenticator
  + getInstance(): DefaultAPICommandAuthenticator
}
class ErrorHandlingApplication {
  + ErrorHandlingApplication(): 
  + apply(AppRequest): void
  + filter(AppRequest): boolean
}
class Exception {
  + Exception(String, Throwable): 
  + Exception(): 
  + Exception(Throwable): 
  # Exception(String, Throwable, boolean, boolean): 
  + Exception(String): 
  ~ serialVersionUID: long
}
class FilteredApplication {
  + FilteredApplication(AbstractApplication, IRequestFilter): 
  - filter: IRequestFilter
  + filter(AppRequest): boolean
}
class Frame {
  + Frame(long, byte[]): 
  + Frame(long): 
  - id: long
  + PAYLOAD_SIZE: int
  + FIRST_ID: long
  + HEADER_SIZE: int
  + INVALID_ID: long
  - currentPayloadSize: int
  - payload: byte[]
  + MAX_SIZE: int
  + equals(Object): boolean
  # canEqual(Object): boolean
  + fromBytes(byte[]): Frame
  + toBytes(): byte[]
  + getId(): long
  + checkACK(Frame): void
  + argueWithOlga(long, long): void
  + fromChannel(ReadableByteChannel): Frame
  + getCurrentPayloadSize(): int
  + toString(): String
  + getPayload(): byte[]
  + hashCode(): int
}
interface IApplicationCommandHandler << interface >> {
  + handle(AppRequest): void
}
interface IClientTransport<T> << interface >> {
  + send(T): void
  + receive(Duration): T
}
interface IDestinationServerApplication<U> << interface >> {
  + send(U, APICommandResponse): void
}
interface IIdentifiableMessage << interface >> {
  + setId(Long): void
  + getId(): Long
}
interface IMessageHandler<U, M> << interface >> {
  + handle(U, M): void
}
interface IRequestFilter << interface >> {
  + filter(AppRequest): boolean
}
interface IServerTransport<U, L> << interface >> {
  + send(U, L): void
  + subscribe(IMessageHandler<U, L>): void
}
class InvalidCredentialsException {
  + InvalidCredentialsException(String): 
  + InvalidCredentialsException(Throwable): 
}
class JWTAPICommandAuthenticator {
  - JWTAPICommandAuthenticator(): 
  - instance: JWTAPICommandAuthenticator
  + getInstance(): JWTAPICommandAuthenticator
}
class JWTAuthenticationApplication {
  + JWTAuthenticationApplication(APICommandAuthenticator<JWTAuthenticationCredentials>, AuthenticationReceiver<DefaultAuthenticationCredentials, DefaultLoginResponse>, JWTKeyProvider): 
}
class JWTAuthenticationReceiverAdapter {
  + JWTAuthenticationReceiverAdapter(AuthenticationReceiver<DefaultAuthenticationCredentials, DefaultLoginResponse>, JWTKeyProvider): 
  + KID_REFRESH: String
  - ISSUER: String
  - keyProvider: JWTKeyProvider
  + REFRESH_TOKEN_EXP_SECONDS: Integer
  - CLAIM_ROLE: String
  - CLAIM_USERNAME: String
  - decoder: JwtParser
  + ACCESS_TOKEN_EXP_SECONDS: Integer
  + KID_ACCESS: String
  - usedUUID: ConcurrentMap<String, String>
  - db: AuthenticationReceiver<DefaultAuthenticationCredentials, DefaultLoginResponse>
  # createBaseToken(String, Integer): JWTBuilderInfo
  + login(LoginCommand): JWTLoginResponse
  + requestIdentity(int): DefaultLoginResponse
  + authorize(JWTAuthenticationCredentials): Authentication
  # createRefreshToken(DefaultLoginResponse): JWTInfo
  # loginRefresh(RefreshLoginCommand): JWTLoginResponse
  # loginPassword(PasswordLoginCommand): JWTLoginResponse
  + register(RegisterCommand): JWTLoginResponse
  # createAccessToken(DefaultLoginResponse): JWTInfo
}
entity JWTBuilderInfo << record >> {
  + JWTBuilderInfo(JwtBuilder, ZonedDateTime): 
  - builder: JwtBuilder
  - exp: ZonedDateTime
  + builder(): JwtBuilder
  + exp(): ZonedDateTime
}
class JWTHMACKeyProvider {
  + JWTHMACKeyProvider(): 
  + registerGenerate(String): void
}
class JWTKeyProvider {
  + JWTKeyProvider(SignatureAlgorithm): 
  # algorithm: SignatureAlgorithm
  - keyMap: Map<String, Key>
  + register(String, Key): void
  + getDecodeKeyResolver(): SigningKeyResolver
  + registerGenerate(String): void
  + resolveSigningKey(String): Key
  # getKeyMap(): Map<String, Key>
}
class Pair<T, K> {
  + Pair(T, K): 
  - first: T
  - second: K
  + getSecond(): K
  + equals(Object): boolean
  + toString(): String
  # canEqual(Object): boolean
  + hashCode(): int
  + getFirst(): T
}
class Receiver {
  + Receiver(Session, DatagramChannel, IMessageHandler<SocketAddress, SocketMessage>, Map<Integer, Session>): 
  - sessionClosed: boolean
  - session: Session
  - channel: DatagramChannel
  - log: Logger
  - pipeSource: SourceChannel
  - handler: IMessageHandler<SocketAddress, SocketMessage>
  - clientsMap: Map<Integer, Session>
  ~ serDesService: JSONSerDesService<SocketMessage>
  # compute(): void
  - closeSession(): void
  - respondToFrame(int): void
}
enum ReqStatus << enumeration >> {
  - ReqStatus(): 
  + UNKNOWN: 
  + NORMAL: 
  + CREATED: 
  + INVALID: 
  + valueOf(String): ReqStatus
  + values(): ReqStatus[]
}
entity RequestHandler << record >> {
  + RequestHandler(IApplicationCommandHandler, Set<IRequestFilter>): 
  + RequestHandler(IApplicationCommandHandler): 
  - handler: IApplicationCommandHandler
  - filters: Set<IRequestFilter>
  + handle(AppRequest): void
  + handler(): IApplicationCommandHandler
  + filters(): Set<IRequestFilter>
}
class Sender {
  + Sender(Session, DatagramChannel, SocketMessage, Map<Integer, Session>): 
  ~ serDesService: JSONSerDesService<SocketMessage>
  - channel: DatagramChannel
  - message: SocketMessage
  - session: Session
  - log: Logger
  - clientsMap: Map<Integer, Session>
  - packBytesToFrame(int, byte[]): ByteBuffer
  - closeSession(): void
  + run(): void
  - receiveAndCheck(long): void
}
class Session {
  + Session(SocketAddress): 
  - id: int
  - address: SocketAddress
  + nextId: AtomicInteger
  - pipe: Pipe
  + getId(): int
  + getAddress(): SocketAddress
  # canEqual(Object): boolean
  + hashCode(): int
  + toString(): String
  + getPipe(): Pipe
  + equals(Object): boolean
}
class Session<K> {
  + Session(K, State, Authentication): 
  + Session(): 
  + Session(K): 
  - address: K
  - state: State
  - auth: Authentication
  + equals(Object): boolean
  + getState(): State
  + setState(State): void
  + setAddress(K): void
  + toString(): String
  + hashCode(): int
  + getAuth(): Authentication
  + setAuth(Authentication): void
  + getAddress(): K
  # canEqual(Object): boolean
}
class SessionFrame {
  + SessionFrame(int, long, int): 
  + SessionFrame(int, long, byte[], int): 
  + HEADER_SIZE: int
  - sending: int
  + MAX_SIZE: int
  + PAYLOAD_SIZE: int
  - sessionId: int
  + fromBytes(byte[]): SessionFrame
  + fromChannel(ReadableByteChannel): SessionFrame
  + toBytes(): byte[]
  + getSessionId(): int
  + getSending(): int
}
class SessionFrameRouter {
  + SessionFrameRouter(DatagramChannel): 
  - log: Logger
  - forkJoinPool: ForkJoinPool
  - handler: IMessageHandler<SocketAddress, SocketMessage>
  + clientPipeMap: Map<Integer, Session>
  - channel: DatagramChannel
  - regClient(SocketAddress): int
  + send(SocketAddress, SocketMessage): void
  + run(): void
  + subscribe(IMessageHandler<SocketAddress, SocketMessage>): void
}
class SizeLimitException {
  + SizeLimitException(String): 
}
class SocketAPIClient {
  + SocketAPIClient(IClientTransport<SocketMessage>): 
  - serDesService: JSONSerDesService<IAPIMessage>
  # deserialize(SocketMessage): APICommandResponse
  # serialize(APICommand): SocketMessage
}
class SocketMessage {
  + SocketMessage(CommandType, Long, Long, byte[]): 
  + SocketMessage(byte[]): 
  + SocketMessage(): 
  + SocketMessage(CommandType): 
  + SocketMessage(CommandType, Long, Long): 
  - id: Long
  - payload: byte[]
  - replyId: Long
  - cmdType: CommandType
  + equals(Object): boolean
  + getReplyId(): Long
  + isResponse(): boolean
  + getCmdType(): CommandType
  + getPayload(): byte[]
  + isRequest(): boolean
  + getId(): Long
  + hashCode(): int
  + setId(Long): void
  + setPayload(byte[]): void
  + toString(): String
  + setCmdType(CommandType): void
  + setReplyId(Long): void
  # canEqual(Object): boolean
}
enum State << enumeration >> {
  - State(): 
  + CREATED: 
  + DEAD: 
  + OPERATING: 
  + values(): State[]
  + valueOf(String): State
}
enum Status << enumeration >> {
  - Status(): 
  + READINGFINISHED: 
  + EXECUTING: 
  + NETWORK: 
  + READING: 
  + IDLE: 
  + HALT: 
  + SENDING: 
  + values(): Status[]
  + valueOf(String): Status
}
class TransportException {
  + TransportException(String): 
  + TransportException(Throwable): 
  + TransportException(): 
}
class TransportSession {
  + TransportSession(SocketAddress, Status, Pipe, List<Frame>): 
  + TransportSession(SocketAddress, Status, Pipe): 
  - sendFrameList: List<Frame>
  - status: Status
  - pipe: Pipe
  - receiveFrameList: Frame[]
  - consumerAddress: SocketAddress
  + setReceiveFrameList(Frame[]): void
  + getNetworkSession(): TransportSession
  + toString(): String
  + getSendFrameList(): List<Frame>
  + getConsumerAddress(): SocketAddress
  + setStatus(Status): void
  + setPipe(Pipe): void
  + checkFinishReading(): boolean
  + hashCode(): int
  # canEqual(Object): boolean
  + addToList(Frame): boolean
  + getReceiveFrameList(): Frame[]
  + equals(Object): boolean
  + setSendFrameList(List<Frame>): void
  + getPipe(): Pipe
  + setConsumerAddress(SocketAddress): void
  + getStatus(): Status
}
class TransportTimeoutException {
  + TransportTimeoutException(String): 
  + TransportTimeoutException(): 
}
class TransportUtils {
  + TransportUtils(): 
  + separateBytes(int, byte[], int): List<SessionFrame>
  - separate(int, byte[]): List<byte[]>
  + joinFrames(List<Frame>): byte[]
  + joinSessionFrames(List<SessionFrame>): byte[]
  + separateBytes(byte[]): List<Frame>
  - join(List<byte[]>): byte[]
  + IntToBytes(int): ByteBuffer
}
class UDPClientTransport {
  + UDPClientTransport(SocketAddress): 
  - socket: DatagramSocket
  - sendDurationTimeout: Duration
  - sessionId: int
  - serverAddress: SocketAddress
  ~ serDesService: JSONSerDesService<SocketMessage>
  - connect(): void
  - sendFrame(SessionFrame): void
  + send(SocketMessage): void
  + receive(Duration): SocketMessage
  - receiveFrame(Duration): SessionFrame
  - disconnect(): void
}
class UDPInputTransportApplication {
  + UDPInputTransportApplication(IServerTransport<SocketAddress, SocketMessage>): 
  - serDesService: JSONSerDesService<APICommand>
  - log: Logger
  # deserialize(SocketMessage): APICommand
  # supplySession(SocketAddress, SocketMessage): Session<SocketAddress>
}
class UDPOutputTransportApplication {
  + UDPOutputTransportApplication(IServerTransport<SocketAddress, SocketMessage>): 
  - log: Logger
  - serDesService: JSONSerDesService<APICommandResponse>
  # serialize(APICommandResponse): SocketMessage
}
class UDPServerFactory {
  + UDPServerFactory(): 
  - log: Logger
  + create(int): IServerTransport<SocketAddress, SocketMessage>
}
class UserExistsException {
  + UserExistsException(): 
}
class UserNotFoundException {
  + UserNotFoundException(): 
}

APIApplication                      --^  AbstractApplication                
AbstractAPIClient                  "1" *--> "transport\n1" IClientTransport                   
AbstractAPIClient                   ..>  IIdentifiableMessage               
AbstractApplication                 ..^  IRequestFilter                     
AbstractApplication                "1" *--> "commandHandlers\n*" RequestHandler                     
AbstractApplicationDecorator        --^  AbstractApplication                
AbstractApplicationDecorator       "1" *--> "decoratee\n1" AbstractApplication                
AbstractInputTransportApplication   --^  AbstractApplication                
AbstractInputTransportApplication   ..>  IIdentifiableMessage               
AbstractInputTransportApplication  "1" *--> "transport\n1" IServerTransport                   
AbstractOutputTransportApplication  --^  AbstractApplication                
AbstractOutputTransportApplication "1" *--> "transport\n1" IServerTransport                   
AppRequest                         "1" *--> "response\n1" AppResponseController              
AppRequest                         "1" *--> "status\n1" ReqStatus                          
AppRequest                         "1" *--> "session\n1" Session                            
AppResponseController              "1" *--> "parentRequest\n1" AppRequest                         
AppResponseController              "1" *--> "destination\n1" IDestinationServerApplication      
ApplicationBuildException           --^  Exception                          
AuthenticatedFilter                 ..^  IRequestFilter                     
Authentication                     "1" *--> "status\n1" AuthenticationStatus               
AuthenticationApplication          "1" *--> "commandAuthenticator\n1" APICommandAuthenticator            
AuthenticationApplication           --^  AbstractApplication                
AuthenticationApplication          "1" *--> "authenticationReceiver\n1" AuthenticationReceiver             
AuthenticationStatus                +--  Authentication                     
BasicApplication                    --^  AbstractApplication                
CommandType                         +--  SocketMessage                      
DefaultAPICommandAuthenticator      --^  APICommandAuthenticator            
ErrorHandlingApplication            --^  APIApplication                     
FilteredApplication                 --^  AbstractApplicationDecorator       
FilteredApplication                "1" *--> "filter\n1" IRequestFilter                     
InvalidCredentialsException         --^  Exception                          
JWTAPICommandAuthenticator          --^  APICommandAuthenticator            
JWTAuthenticationApplication        --^  AuthenticationApplication          
JWTAuthenticationReceiverAdapter    ..^  AuthenticationReceiver             
JWTAuthenticationReceiverAdapter   "1" *--> "db\n1" AuthenticationReceiver             
JWTAuthenticationReceiverAdapter   "1" *--> "keyProvider\n1" JWTKeyProvider                     
JWTHMACKeyProvider                  --^  JWTKeyProvider                     
Receiver                           "1" *--> "handler\n1" IMessageHandler                    
Receiver                           "1" *--> "clientsMap\n*" Session                            
ReqStatus                           +--  AppRequest                         
Sender                             "1" *--> "clientsMap\n*" Session                            
Sender                             "1" *--> "message\n1" SocketMessage                      
Session                            "1" *--> "auth\n1" Authentication                     
Session                            "1" *--> "state\n1" State                              
SessionFrame                        --^  Frame                              
SessionFrameRouter                 "1" *--> "handler\n1" IMessageHandler                    
SessionFrameRouter                  ..^  IServerTransport                   
SessionFrameRouter                 "1" *--> "clientPipeMap\n*" Session                            
SizeLimitException                  --^  Exception                          
SocketAPIClient                     --^  AbstractAPIClient                  
SocketMessage                      "1" *--> "cmdType\n1" CommandType                        
SocketMessage                       ..^  IIdentifiableMessage               
State                               +--  Session                            
Status                              +--  TransportSession                   
TransportException                  --^  Exception                          
TransportSession                   "1" *--> "receiveFrameList\n*" Frame                              
TransportSession                   "1" *--> "status\n1" Status                             
TransportTimeoutException           --^  Exception                          
UDPClientTransport                  ..^  IClientTransport                   
UDPInputTransportApplication        --^  AbstractInputTransportApplication  
UDPOutputTransportApplication       --^  AbstractOutputTransportApplication 
UserExistsException                 --^  Exception                          
UserNotFoundException               --^  Exception                          
@enduml
